<svg id="Layer_1" data-name="Layer 1" xmlns="http://www.w3.org/2000/svg" viewBox="0 0 226.92 54.16"><defs><style>.cls-1{fill:#231f20;}.cls-2{font-size:11px;fill:#c9177e;font-family:HelveticaNeue-Medium, Helvetica Neue;letter-spacing:0.14em;}</style></defs><title>logo-dist-ua</title><g id="all"><g id="letters"><polygon id="T" class="cls-1" points="22.5 0 0 0 0 6.7 7.6 6.7 7.6 29.1 15.3 29.1 15.3 6.7 22.5 6.7 22.5 0"/><path id="u" class="cls-1" d="M43.8,6.8H36.7v12c0,4-2.3,5-3.8,5-2.3,0-3.5-1-3.5-4V6.8H22.5V20.1c0,5.9,1.7,9.5,8,9.5A7.64,7.64,0,0,0,36.9,26h.2v3.1h6.8L43.8,6.8Z" transform="translate(0 -0.1)"/><path id="svg_1" data-name="svg 1" class="cls-1" d="M57.4,11.7c3.1,0,4.2,3.3,4.2,6.1s-1,6.4-4.2,6.4-4.2-2.6-4.2-6.4C53.2,13.1,55.5,11.7,57.4,11.7Zm-11,23.9h6.9V26.8a7.55,7.55,0,0,0,6.2,2.9c6.1,0,9-5.4,9-11.3,0-6.2-2.9-12.3-9.5-12.3a6.52,6.52,0,0,0-5.9,3.3H53V6.8H46.4Z" transform="translate(0 -0.1)"/><g id="p2"><path id="svg_2" data-name="svg 2" class="cls-1" d="M81.1,11.7c3.1,0,4.2,3.3,4.2,6.1s-1,6.4-4.2,6.4-4.2-2.6-4.2-6.4C77,13.1,79.2,11.7,81.1,11.7ZM70.2,35.6h6.9V26.8a7.55,7.55,0,0,0,6.2,2.9c6.1,0,9-5.4,9-11.3,0-6.2-2.9-12.3-9.5-12.3a6.52,6.52,0,0,0-5.9,3.3h-.2V6.8H70.1V35.6Z" transform="translate(0 -0.1)"/></g><path id="svg_3" data-name="svg 3" class="cls-1" d="M100.5,15.7c.3-2.8,2.1-4.5,4.5-4.5a4.36,4.36,0,0,1,4.2,4.5Zm15.8,4.1c.3-7.6-3.6-13.7-11.3-13.7A11.49,11.49,0,0,0,93.6,17.9c0,7.5,4.7,11.8,11.6,11.8,4.9,0,9.4-2.3,10.7-7.3h-6.6a4.3,4.3,0,0,1-4,2.4c-2.9,0-4.7-2.1-4.9-5Z" transform="translate(0 -0.1)"/><path id="svg_4" data-name="svg 4" class="cls-1" d="M117.9,29.2h6.9V18.5a4.88,4.88,0,0,1,5.2-5.2h2.1V6.7a1.8,1.8,0,0,0-1-.2,6.37,6.37,0,0,0-6.4,4.3h0v-4h-6.8V29.2Z" transform="translate(0 -0.1)"/><polygon id="w" class="cls-1" points="167.4 6.7 160.1 6.7 156.7 21.1 153.6 6.7 146.8 6.7 143.9 21.1 143.7 21.1 140.2 6.7 133.1 6.7 139.7 29.1 146.8 29.1 150.1 14.2 150.3 14.2 153.6 29.1 160.7 29.1 167.4 6.7"/><path id="a" class="cls-1" d="M173.1,22.8c0-1.9,1.4-2.6,2.9-2.9s3.3-.5,4.3-1.2c.2,4.7-1,6.6-4.3,6.6C174.5,25.2,173.1,24.5,173.1,22.8Zm.6-9a3.16,3.16,0,0,1,3.5-2.8c1.4,0,3.3.5,3.3,2.3,0,1.4-.5,1.7-1.7,2.1-4.9,1-12.5.3-12.5,7.6,0,4.7,3.1,6.8,7.3,6.8a9.2,9.2,0,0,0,7.1-2.8v2.3h6.6V13.7c0-6.2-4.9-7.5-10.1-7.5a13.94,13.94,0,0,0-6.8,1.6,7.22,7.22,0,0,0-3.3,6.1l6.6-.1Z" transform="translate(0 -0.1)"/><g id="r2"><path id="svg_5" data-name="svg 5" class="cls-1" d="M189.8,29.2h6.9V18.5a4.88,4.88,0,0,1,5.2-5.2H204V6.7a1.8,1.8,0,0,0-1-.2,6.37,6.37,0,0,0-6.4,4.3h0v-4h-6.8V29.2Z" transform="translate(0 -0.1)"/></g><g id="e2"><path id="svg_6" data-name="svg 6" class="cls-1" d="M211.1,15.7c.3-2.8,2.1-4.5,4.5-4.5a4.36,4.36,0,0,1,4.2,4.5Zm15.8,4.1c.3-7.6-3.6-13.7-11.3-13.7a11.49,11.49,0,0,0-11.4,11.8c0,7.5,4.7,11.8,11.6,11.8,4.9,0,9.4-2.3,10.7-7.3h-6.6a4.3,4.3,0,0,1-4,2.4c-2.9,0-4.7-2.1-4.9-5Z" transform="translate(0 -0.1)"/></g></g></g><g id="svg_7" data-name="svg 7"><g id="svg_22" data-name="svg 22"><path id="svg_23" data-name="svg 23" class="cls-1" d="M220.4,3.3a3.15,3.15,0,0,1,6.3,0,3.16,3.16,0,0,1-3.2,3.2,3.2,3.2,0,0,1-3.1-3.2Zm3.2,2.8a2.78,2.78,0,0,0,2.7-2.8,2.7,2.7,0,1,0-5.4,0,2.71,2.71,0,0,0,2.7,2.8Z" transform="translate(0 -0.1)"/><path id="svg_24" data-name="svg 24" class="cls-1" d="M222.4,5h.5V3.6h.6l.9,1.4h.6l-.9-1.5a.84.84,0,0,0,.9-.9c0-.6-.4-.9-1.1-.9h-1.2L222.4,5Zm.5-2.8h.7c.4,0,.7,0,.7.5s-.4.5-.8.5h-.6v-1Z" transform="translate(0 -0.1)"/></g></g><text class="cls-2" transform="translate(6.19 51)">САЙТ КОНСУЛЬТАНТА. УКРАИНА</text></svg>