<?xml version="1.0" encoding="utf-8"?>
<!-- Generated by IcoMoon.io -->
<!DOCTYPE svg PUBLIC "-//W3C//DTD SVG 1.1//EN" "http://www.w3.org/Graphics/SVG/1.1/DTD/svg11.dtd">
<svg version="1.1" xmlns="http://www.w3.org/2000/svg" xmlns:xlink="http://www.w3.org/1999/xlink" width="32" height="32" viewBox="0 0 32 32">
<path d="M12.408 16l12.601-12.601c0.214-0.214 0.321-0.46 0.321-0.737s-0.107-0.524-0.321-0.737l-1.603-1.603c-0.214-0.214-0.46-0.321-0.737-0.321s-0.524 0.107-0.738 0.321l-14.942 14.942c-0.214 0.214-0.32 0.46-0.32 0.738s0.107 0.524 0.32 0.737l14.941 14.942c0.214 0.214 0.46 0.321 0.738 0.321s0.523-0.107 0.737-0.321l1.603-1.602c0.214-0.214 0.32-0.46 0.32-0.738s-0.106-0.523-0.32-0.737l-12.601-12.602z"></path>
</svg>
