<?xml version="1.0" encoding="utf-8"?>
<!-- Generated by IcoMoon.io -->
<!DOCTYPE svg PUBLIC "-//W3C//DTD SVG 1.1//EN" "http://www.w3.org/Graphics/SVG/1.1/DTD/svg11.dtd">
<svg version="1.1" xmlns="http://www.w3.org/2000/svg" xmlns:xlink="http://www.w3.org/1999/xlink" width="32" height="32" viewBox="0 0 32 32">
<path d="M30.667 24h-29.334c-0.361 0-0.674 0.132-0.938 0.396s-0.396 0.576-0.396 0.937v2.667c0 0.361 0.132 0.674 0.396 0.938s0.577 0.396 0.938 0.396h29.334c0.361 0 0.673-0.132 0.937-0.396s0.396-0.576 0.396-0.938v-2.667c0-0.361-0.131-0.674-0.396-0.937s-0.576-0.396-0.938-0.396z"></path>
<path d="M31.604 3.062c-0.264-0.264-0.576-0.396-0.937-0.396h-29.334c-0.361 0-0.674 0.132-0.938 0.396s-0.396 0.576-0.396 0.937v2.667c0 0.361 0.132 0.673 0.396 0.937s0.577 0.396 0.938 0.396h29.334c0.361 0 0.673-0.132 0.937-0.396s0.396-0.576 0.396-0.937v-2.667c-0-0.361-0.132-0.674-0.396-0.937z"></path>
<path d="M30.667 13.333h-29.334c-0.361 0-0.674 0.132-0.938 0.396s-0.396 0.576-0.396 0.937v2.667c0 0.361 0.132 0.674 0.396 0.937s0.577 0.396 0.938 0.396h29.334c0.361 0 0.673-0.132 0.937-0.396s0.396-0.576 0.396-0.937v-2.667c0-0.361-0.132-0.674-0.396-0.937s-0.576-0.396-0.938-0.396z"></path>
</svg>
