<?xml version="1.0" encoding="utf-8"?>
<!-- Generated by IcoMoon.io -->
<!DOCTYPE svg PUBLIC "-//W3C//DTD SVG 1.1//EN" "http://www.w3.org/Graphics/SVG/1.1/DTD/svg11.dtd">
<svg version="1.1" xmlns="http://www.w3.org/2000/svg" xmlns:xlink="http://www.w3.org/1999/xlink" width="32" height="32" viewBox="0 0 32 32">
<path d="M31.216 3.983c-0.522-0.522-1.15-0.783-1.883-0.783h-26.667c-0.733 0-1.361 0.261-1.883 0.783s-0.783 1.15-0.783 1.883v20.266c0 0.734 0.261 1.361 0.783 1.883s1.15 0.783 1.883 0.783h26.667c0.733 0 1.361-0.261 1.883-0.783s0.784-1.15 0.784-1.883v-20.266c0-0.733-0.261-1.361-0.784-1.883zM29.866 26.133c0 0.145-0.053 0.269-0.158 0.375s-0.231 0.158-0.375 0.158h-26.667c-0.144 0-0.269-0.053-0.375-0.158s-0.158-0.231-0.158-0.375v-10.133h27.733v10.133zM29.866 9.6h-27.733v-3.733c0-0.144 0.053-0.269 0.158-0.375s0.231-0.158 0.375-0.158h26.667c0.144 0 0.269 0.053 0.375 0.158s0.158 0.231 0.158 0.375v3.733h0z"></path>
<path d="M4.267 22.4h4.267v2.134h-4.267v-2.134z"></path>
<path d="M10.667 22.4h6.4v2.134h-6.4v-2.134z"></path>
</svg>
