<?xml version="1.0" encoding="utf-8"?>
<!-- Generated by IcoMoon.io -->
<!DOCTYPE svg PUBLIC "-//W3C//DTD SVG 1.1//EN" "http://www.w3.org/Graphics/SVG/1.1/DTD/svg11.dtd">
<svg version="1.1" xmlns="http://www.w3.org/2000/svg" xmlns:xlink="http://www.w3.org/1999/xlink" width="32" height="32" viewBox="0 0 32 32">
<path d="M31.462 21.462c-0.359-0.359-0.795-0.538-1.307-0.538h-8.923l-2.615 2.615c-0.744 0.718-1.615 1.077-2.615 1.077s-1.872-0.359-2.615-1.077l-2.596-2.615h-8.942c-0.513 0-0.949 0.18-1.308 0.538s-0.538 0.795-0.538 1.308v6.154c0 0.513 0.179 0.949 0.538 1.308s0.795 0.538 1.308 0.538h28.308c0.513 0 0.949-0.179 1.307-0.538s0.538-0.795 0.538-1.308v-6.154c0-0.513-0.179-0.949-0.539-1.308zM24.25 27.943c-0.244 0.244-0.532 0.365-0.866 0.365s-0.622-0.122-0.865-0.365c-0.243-0.244-0.365-0.532-0.365-0.865s0.122-0.622 0.365-0.865c0.244-0.244 0.532-0.366 0.865-0.366s0.622 0.122 0.866 0.366c0.243 0.243 0.365 0.532 0.365 0.865s-0.122 0.622-0.365 0.865zM29.173 27.943c-0.243 0.244-0.532 0.365-0.865 0.365s-0.622-0.122-0.865-0.365c-0.243-0.244-0.365-0.532-0.365-0.865s0.122-0.622 0.365-0.865c0.244-0.244 0.532-0.366 0.865-0.366s0.622 0.122 0.865 0.366c0.244 0.243 0.366 0.532 0.366 0.865s-0.122 0.622-0.366 0.865z"></path>
<path d="M15.135 21.789c0.231 0.243 0.519 0.365 0.865 0.365s0.634-0.122 0.865-0.365l8.616-8.616c0.397-0.372 0.487-0.821 0.269-1.346-0.218-0.5-0.596-0.75-1.135-0.75h-4.923v-8.615c0-0.333-0.122-0.622-0.365-0.865s-0.532-0.365-0.865-0.365h-4.924c-0.333 0-0.622 0.122-0.865 0.365s-0.365 0.532-0.365 0.865v8.616h-4.923c-0.539 0-0.917 0.25-1.135 0.75-0.218 0.525-0.128 0.974 0.269 1.346l8.616 8.615z"></path>
</svg>
