<?xml version="1.0" encoding="utf-8"?>
<!-- Generated by IcoMoon.io -->
<!DOCTYPE svg PUBLIC "-//W3C//DTD SVG 1.1//EN" "http://www.w3.org/Graphics/SVG/1.1/DTD/svg11.dtd">
<svg version="1.1" xmlns="http://www.w3.org/2000/svg" xmlns:xlink="http://www.w3.org/1999/xlink" width="32" height="32" viewBox="0 0 32 32">
<path d="M12.308 2.461h-9.846c-0.667 0-1.244 0.244-1.731 0.731s-0.731 1.064-0.731 1.73v7.385c0 0.667 0.244 1.244 0.731 1.731s1.064 0.731 1.731 0.731h9.846c0.667 0 1.244-0.244 1.731-0.731s0.731-1.064 0.731-1.731v-7.385c0-0.667-0.244-1.244-0.731-1.731s-1.064-0.731-1.731-0.731z"></path>
<path d="M12.308 17.231h-9.846c-0.667 0-1.244 0.244-1.731 0.731s-0.731 1.064-0.731 1.731v7.385c0 0.667 0.244 1.244 0.731 1.731s1.064 0.731 1.731 0.731h9.846c0.667 0 1.244-0.244 1.731-0.731s0.731-1.064 0.731-1.731v-7.385c0-0.667-0.244-1.244-0.731-1.731s-1.064-0.731-1.731-0.731z"></path>
<path d="M31.269 3.192c-0.487-0.488-1.064-0.731-1.731-0.731h-9.846c-0.667 0-1.244 0.244-1.731 0.731s-0.731 1.064-0.731 1.731v7.385c0 0.667 0.244 1.244 0.731 1.731s1.064 0.731 1.731 0.731h9.846c0.667 0 1.244-0.244 1.731-0.731s0.731-1.064 0.731-1.731v-7.385c0-0.667-0.244-1.243-0.731-1.73z"></path>
<path d="M29.538 17.231h-9.846c-0.667 0-1.244 0.244-1.731 0.731s-0.731 1.064-0.731 1.731v7.385c0 0.667 0.244 1.244 0.731 1.731s1.064 0.731 1.731 0.731h9.846c0.667 0 1.244-0.244 1.731-0.731s0.731-1.064 0.731-1.731v-7.385c0-0.667-0.243-1.244-0.731-1.731s-1.064-0.731-1.731-0.731z"></path>
</svg>
