<?xml version="1.0" encoding="utf-8"?>
<!-- Generated by IcoMoon.io -->
<!DOCTYPE svg PUBLIC "-//W3C//DTD SVG 1.1//EN" "http://www.w3.org/Graphics/SVG/1.1/DTD/svg11.dtd">
<svg version="1.1" xmlns="http://www.w3.org/2000/svg" xmlns:xlink="http://www.w3.org/1999/xlink" width="32" height="32" viewBox="0 0 32 32">
<path d="M7.429 12.572h-5.714c-0.476 0-0.881 0.167-1.214 0.5s-0.5 0.738-0.5 1.214v3.429c0 0.476 0.167 0.881 0.5 1.214s0.738 0.5 1.214 0.5h5.714c0.476 0 0.881-0.167 1.214-0.5s0.5-0.738 0.5-1.214v-3.429c0-0.476-0.166-0.881-0.5-1.214s-0.738-0.5-1.214-0.5z"></path>
<path d="M7.429 3.428h-5.714c-0.476 0-0.881 0.167-1.214 0.5s-0.5 0.738-0.5 1.214v3.429c0 0.476 0.167 0.881 0.5 1.214s0.738 0.5 1.214 0.5h5.714c0.476 0 0.881-0.167 1.214-0.5s0.5-0.738 0.5-1.214v-3.429c0-0.476-0.166-0.881-0.5-1.214s-0.738-0.5-1.214-0.5z"></path>
<path d="M7.429 21.714h-5.714c-0.476 0-0.881 0.166-1.214 0.5s-0.5 0.738-0.5 1.214v3.429c0 0.476 0.167 0.881 0.5 1.214s0.738 0.5 1.214 0.5h5.714c0.476 0 0.881-0.167 1.214-0.5s0.5-0.738 0.5-1.214v-3.429c0-0.476-0.166-0.881-0.5-1.214s-0.738-0.5-1.214-0.5z"></path>
<path d="M30.285 12.572h-17.143c-0.476 0-0.881 0.167-1.214 0.5s-0.5 0.738-0.5 1.214v3.429c0 0.476 0.166 0.881 0.5 1.214s0.738 0.5 1.214 0.5h17.143c0.476 0 0.881-0.167 1.214-0.5s0.5-0.738 0.5-1.214v-3.429c0-0.476-0.166-0.881-0.5-1.214s-0.738-0.5-1.214-0.5z"></path>
<path d="M30.285 21.714h-17.143c-0.476 0-0.881 0.166-1.214 0.5s-0.5 0.738-0.5 1.214v3.429c0 0.476 0.166 0.881 0.5 1.214s0.738 0.5 1.214 0.5h17.143c0.476 0 0.881-0.166 1.214-0.5s0.5-0.738 0.5-1.214v-3.429c0-0.476-0.166-0.881-0.5-1.214s-0.738-0.5-1.214-0.5z"></path>
<path d="M31.5 3.929c-0.333-0.333-0.738-0.5-1.214-0.5h-17.143c-0.476 0-0.881 0.167-1.214 0.5s-0.5 0.738-0.5 1.214v3.429c0 0.476 0.166 0.881 0.5 1.214s0.738 0.5 1.214 0.5h17.143c0.476 0 0.881-0.167 1.214-0.5s0.5-0.738 0.5-1.214v-3.429c0-0.476-0.166-0.881-0.5-1.214z"></path>
</svg>
