<?xml version="1.0" encoding="utf-8"?>
<!-- Generated by IcoMoon.io -->
<!DOCTYPE svg PUBLIC "-//W3C//DTD SVG 1.1//EN" "http://www.w3.org/Graphics/SVG/1.1/DTD/svg11.dtd">
<svg version="1.1" xmlns="http://www.w3.org/2000/svg" xmlns:xlink="http://www.w3.org/1999/xlink" width="32" height="32" viewBox="0 0 32 32">
<path d="M23.326 16l7.919-7.919c0.503-0.503 0.754-1.113 0.754-1.832s-0.252-1.329-0.754-1.832l-3.663-3.664c-0.503-0.503-1.113-0.754-1.831-0.754s-1.329 0.251-1.832 0.754l-7.919 7.919-7.919-7.919c-0.502-0.503-1.113-0.754-1.832-0.754s-1.329 0.251-1.832 0.754l-3.663 3.664c-0.503 0.502-0.754 1.113-0.754 1.832s0.251 1.329 0.754 1.832l7.919 7.919-7.919 7.919c-0.503 0.503-0.754 1.113-0.754 1.832s0.251 1.329 0.754 1.831l3.663 3.663c0.503 0.503 1.114 0.754 1.832 0.754s1.329-0.252 1.832-0.754l7.919-7.919 7.92 7.919c0.503 0.503 1.113 0.754 1.832 0.754 0.718 0 1.329-0.252 1.831-0.754l3.663-3.663c0.503-0.502 0.754-1.113 0.754-1.831s-0.251-1.329-0.754-1.832l-7.919-7.919z"></path>
</svg>
