<?xml version="1.0" encoding="utf-8"?>
<!-- Generated by IcoMoon.io -->
<!DOCTYPE svg PUBLIC "-//W3C//DTD SVG 1.1//EN" "http://www.w3.org/Graphics/SVG/1.1/DTD/svg11.dtd">
<svg version="1.1" xmlns="http://www.w3.org/2000/svg" xmlns:xlink="http://www.w3.org/1999/xlink" width="32" height="32" viewBox="0 0 32 32">
<path d="M29.826 14.115c0.116-0.423 0.173-0.865 0.173-1.327 0-0.987-0.244-1.91-0.731-2.769 0.038-0.269 0.058-0.545 0.058-0.827 0-1.295-0.385-2.436-1.154-3.423v-0.096c0.013-1.756-0.535-3.141-1.644-4.154s-2.561-1.519-4.355-1.519h-2.154c-1.346 0-2.628 0.141-3.846 0.423s-2.647 0.705-4.288 1.269c-1.487 0.513-2.372 0.769-2.654 0.769h-5.538c-0.679 0-1.26 0.24-1.74 0.721s-0.721 1.061-0.721 1.74v12.308c0 0.68 0.24 1.259 0.721 1.74s1.061 0.721 1.74 0.721h5.269c0.461 0.308 1.34 1.302 2.634 2.981 0.756 0.988 1.442 1.801 2.058 2.443 0.243 0.269 0.442 0.68 0.596 1.231s0.266 1.093 0.337 1.625c0.071 0.532 0.234 1.112 0.49 1.74s0.602 1.154 1.038 1.578c0.5 0.474 1.077 0.711 1.731 0.711 1.077 0 2.045-0.208 2.904-0.625s1.513-1.067 1.962-1.952c0.449-0.872 0.673-2.064 0.673-3.577 0-1.192-0.308-2.423-0.923-3.692h3.384c1.334 0 2.487-0.487 3.462-1.462s1.461-2.122 1.461-3.442c-0-1.141-0.314-2.186-0.942-3.135zM5.789 7.020c-0.244 0.244-0.532 0.365-0.865 0.365s-0.622-0.122-0.866-0.365c-0.244-0.244-0.365-0.532-0.365-0.866s0.122-0.622 0.365-0.865c0.244-0.244 0.532-0.365 0.866-0.365s0.622 0.122 0.865 0.365c0.244 0.244 0.365 0.532 0.365 0.865s-0.122 0.622-0.365 0.866zM27.557 18.952c-0.5 0.494-1.070 0.74-1.712 0.74h-6.769c0 0.744 0.307 1.766 0.923 3.067s0.923 2.33 0.923 3.087c0 1.256-0.205 2.186-0.615 2.788s-1.231 0.904-2.462 0.904c-0.333-0.333-0.577-0.879-0.731-1.635s-0.349-1.561-0.586-2.413c-0.237-0.852-0.618-1.555-1.144-2.106-0.282-0.295-0.776-0.878-1.481-1.75-0.051-0.064-0.199-0.256-0.442-0.577s-0.445-0.583-0.606-0.788c-0.16-0.205-0.382-0.478-0.664-0.817s-0.539-0.622-0.769-0.846c-0.231-0.224-0.477-0.452-0.74-0.683s-0.519-0.404-0.769-0.519-0.477-0.173-0.683-0.173h-0.615v-12.308h0.615c0.167 0 0.368-0.019 0.606-0.058s0.448-0.080 0.634-0.125c0.186-0.045 0.43-0.115 0.731-0.212s0.526-0.17 0.673-0.221c0.148-0.051 0.375-0.131 0.683-0.241s0.494-0.176 0.558-0.202c2.705-0.936 4.897-1.404 6.577-1.404h2.461c1.116 0 1.987 0.263 2.615 0.788s0.942 1.333 0.942 2.423c0 0.333-0.032 0.692-0.096 1.077 0.384 0.205 0.689 0.542 0.913 1.009s0.337 0.939 0.337 1.413c0 0.474-0.115 0.917-0.346 1.327 0.68 0.641 1.019 1.404 1.019 2.288 0 0.321-0.064 0.676-0.192 1.067s-0.289 0.696-0.481 0.913c0.41 0.013 0.753 0.314 1.029 0.904s0.414 1.109 0.414 1.558c0 0.654-0.25 1.227-0.75 1.721z"></path>
</svg>
