<?xml version="1.0" encoding="utf-8"?>
<!-- Generated by IcoMoon.io -->
<!DOCTYPE svg PUBLIC "-//W3C//DTD SVG 1.1//EN" "http://www.w3.org/Graphics/SVG/1.1/DTD/svg11.dtd">
<svg version="1.1" xmlns="http://www.w3.org/2000/svg" xmlns:xlink="http://www.w3.org/1999/xlink" width="32" height="32" viewBox="0 0 32 32">
<path d="M31.649 3.314c-0.234-0.234-0.513-0.352-0.833-0.352h-18.963c-0.321 0-0.599 0.118-0.833 0.352s-0.352 0.513-0.352 0.833v3.556h-2.963c-0.333 0-0.695 0.080-1.084 0.241s-0.701 0.358-0.935 0.593l-3.667 3.667c-0.16 0.16-0.299 0.346-0.417 0.556s-0.204 0.398-0.259 0.565c-0.055 0.167-0.096 0.395-0.12 0.685s-0.040 0.503-0.046 0.639c-0.006 0.136-0.006 0.37 0 0.704s0.009 0.549 0.009 0.648v5.926c-0.321 0-0.599 0.117-0.833 0.352s-0.352 0.512-0.352 0.833c0 0.185 0.025 0.349 0.074 0.491s0.133 0.256 0.25 0.343c0.117 0.087 0.219 0.157 0.305 0.213s0.232 0.092 0.435 0.111 0.342 0.031 0.417 0.037c0.074 0.006 0.231 0.006 0.472 0s0.38-0.009 0.417-0.009h1.185c0 1.308 0.463 2.426 1.389 3.352s2.043 1.389 3.352 1.389c1.309 0 2.426-0.463 3.352-1.389s1.389-2.043 1.389-3.352h7.111c0 1.308 0.463 2.426 1.389 3.352s2.043 1.389 3.352 1.389c1.309 0 2.426-0.463 3.352-1.389s1.389-2.043 1.389-3.352c0.037 0 0.176 0.003 0.416 0.009s0.398 0.006 0.472 0c0.074-0.006 0.213-0.019 0.417-0.037s0.349-0.055 0.435-0.111 0.188-0.126 0.305-0.213c0.117-0.087 0.201-0.201 0.25-0.343s0.074-0.306 0.074-0.491v-18.963c0-0.321-0.117-0.599-0.351-0.834zM9.963 25.963c-0.469 0.469-1.025 0.704-1.667 0.704s-1.198-0.235-1.667-0.704c-0.469-0.469-0.704-1.025-0.704-1.667s0.235-1.198 0.704-1.667c0.469-0.469 1.025-0.704 1.667-0.704s1.198 0.235 1.667 0.704c0.469 0.469 0.704 1.025 0.704 1.667s-0.235 1.198-0.704 1.667zM10.667 14.815h-7.111v-0.555c0-0.161 0.055-0.296 0.167-0.408l3.611-3.611c0.111-0.111 0.247-0.167 0.408-0.167h2.926v4.741zM26.555 25.963c-0.469 0.469-1.025 0.704-1.667 0.704s-1.198-0.235-1.667-0.704c-0.469-0.469-0.704-1.025-0.704-1.667s0.235-1.198 0.704-1.667c0.469-0.469 1.025-0.704 1.667-0.704s1.198 0.235 1.667 0.704c0.469 0.469 0.704 1.025 0.704 1.667s-0.234 1.198-0.704 1.667z"></path>
</svg>
