<?xml version="1.0" encoding="utf-8"?>
<!-- Generated by IcoMoon.io -->
<!DOCTYPE svg PUBLIC "-//W3C//DTD SVG 1.1//EN" "http://www.w3.org/Graphics/SVG/1.1/DTD/svg11.dtd">
<svg version="1.1" xmlns="http://www.w3.org/2000/svg" xmlns:xlink="http://www.w3.org/1999/xlink" width="32" height="32" viewBox="0 0 32 32">
<path d="M31.289 27.808l-6.596-6.596c1.59-2.295 2.385-4.852 2.385-7.673 0-1.833-0.356-3.587-1.068-5.26s-1.673-3.115-2.885-4.327-2.654-2.173-4.326-2.885c-1.673-0.712-3.427-1.067-5.26-1.067s-3.587 0.356-5.26 1.067c-1.673 0.711-3.115 1.673-4.327 2.885s-2.173 2.654-2.885 4.327c-0.712 1.673-1.067 3.426-1.067 5.26s0.356 3.586 1.067 5.259c0.711 1.673 1.673 3.115 2.885 4.327s2.654 2.173 4.327 2.885c1.673 0.712 3.426 1.067 5.26 1.067 2.821 0 5.379-0.795 7.673-2.385l6.596 6.577c0.462 0.487 1.038 0.731 1.731 0.731 0.68 0 1.259-0.24 1.74-0.721s0.721-1.061 0.721-1.74-0.237-1.256-0.711-1.731zM19.625 19.625c-1.686 1.686-3.715 2.529-6.087 2.529s-4.4-0.843-6.086-2.529c-1.686-1.686-2.529-3.714-2.529-6.086s0.843-4.401 2.529-6.086c1.686-1.686 3.715-2.529 6.086-2.529s4.4 0.843 6.087 2.529c1.686 1.686 2.529 3.715 2.529 6.086s-0.843 4.4-2.529 6.086z"></path>
<path d="M19.077 12.308h-11.077c-0.167 0-0.311 0.061-0.433 0.183s-0.183 0.266-0.183 0.433v1.231c0 0.167 0.061 0.311 0.183 0.433s0.266 0.183 0.433 0.183h11.077c0.167 0 0.311-0.061 0.433-0.183s0.182-0.266 0.182-0.433v-1.231c0-0.167-0.061-0.311-0.182-0.433s-0.266-0.183-0.433-0.183z"></path>
</svg>
